<?xml version="1.0" standalone="no"?>
<!DOCTYPE svg PUBLIC "-//W3C//DTD SVG 20010904//EN"
 "http://www.w3.org/TR/2001/REC-SVG-20010904/DTD/svg10.dtd">
<svg version="1.0" xmlns="http://www.w3.org/2000/svg"
 width="1000.000000pt" height="1000.000000pt" viewBox="0 0 1000.000000 1000.000000"
 preserveAspectRatio="xMidYMid meet">

<g transform="translate(0.000000,1000.000000) scale(0.100000,-0.100000)"
fill="#000000" stroke="none">
<path d="M4085 9064 c-22 -2 -89 -9 -150 -14 -525 -50 -1015 -226 -1378 -493
-482 -355 -806 -861 -1008 -1572 -22 -77 -94 -394 -160 -705 -466 -2197 -583
-2747 -599 -2835 -46 -242 -54 -333 -54 -600 -1 -229 2 -274 22 -380 131 -690
603 -1080 1437 -1190 204 -27 506 -37 729 -25 799 42 1404 280 1857 730 183
182 325 373 457 615 60 108 151 310 187 411 l18 51 216 7 c119 3 229 7 244 9
27 2 31 -3 63 -83 190 -472 512 -866 924 -1131 58 -37 113 -74 123 -81 18 -12
14 -25 -64 -226 -45 -117 -80 -214 -78 -217 3 -2 139 20 304 50 370 66 462 82
744 131 140 24 225 43 228 51 3 7 -15 48 -40 90 -24 43 -100 177 -167 298 -68
121 -131 231 -140 245 -10 14 -46 79 -80 145 -74 140 -242 441 -264 470 -14
20 -14 20 -23 -5 -60 -160 -136 -359 -143 -370 -7 -11 -20 -6 -63 23 -93 61
-231 183 -307 269 -138 159 -282 409 -341 595 l-23 72 36 39 c57 64 137 188
184 286 60 128 97 245 149 479 24 112 51 230 59 262 8 33 17 72 20 88 6 27 7
27 89 27 211 0 490 -67 702 -169 173 -82 427 -269 405 -296 -6 -7 -85 -65
-175 -130 -91 -65 -165 -119 -165 -120 0 -6 60 -22 290 -80 245 -61 364 -92
510 -131 52 -14 160 -43 240 -64 80 -21 193 -50 252 -66 59 -16 110 -25 114
-22 6 6 -4 149 -36 518 -16 179 -60 745 -60 765 0 24 -15 17 -112 -55 -46 -34
-125 -92 -177 -130 l-95 -68 -95 90 c-287 271 -659 476 -1040 573 -137 34
-308 64 -417 71 -52 4 -94 11 -94 15 0 23 77 218 124 314 67 135 151 264 244
371 110 127 351 320 371 298 4 -5 41 -96 81 -202 41 -106 77 -189 81 -185 12
12 211 369 256 458 22 44 69 130 105 190 81 139 312 551 329 588 7 15 10 29 8
31 -2 3 -101 21 -219 40 -118 20 -267 46 -330 57 -63 11 -187 33 -275 49 -334
60 -458 81 -460 78 -1 -2 35 -97 81 -213 46 -115 83 -213 84 -216 0 -3 -54
-41 -121 -84 -156 -100 -259 -183 -388 -309 -278 -272 -474 -591 -610 -989
-51 -149 -118 -424 -145 -590 -15 -88 -142 -689 -181 -857 -24 -101 -68 -182
-130 -238 -96 -88 -80 -86 -646 -90 l-496 -3 -28 -132 c-60 -285 -132 -493
-246 -717 -95 -185 -181 -302 -329 -450 -340 -340 -757 -500 -1355 -517 -789
-23 -1266 223 -1409 728 -34 121 -46 218 -46 384 0 199 17 315 120 799 636
3004 637 3010 706 3208 45 130 167 380 232 478 251 375 592 612 1041 724 383
96 881 96 1238 0 397 -106 640 -344 734 -715 30 -120 37 -416 15 -588 -9 -68
-59 -324 -112 -570 -104 -490 -124 -551 -204 -631 -23 -23 -67 -54 -99 -69
-56 -26 -58 -26 -323 -29 -220 -3 -268 -1 -268 10 0 8 52 255 115 550 63 295
120 580 126 634 14 119 6 318 -16 399 -87 320 -369 485 -827 485 -542 0 -926
-218 -1133 -644 -30 -61 -68 -153 -86 -205 -28 -86 -109 -431 -109 -466 0 -13
48 -15 360 -15 l360 0 5 23 c3 12 21 90 39 173 52 230 103 317 224 376 63 31
72 33 177 33 96 0 116 -3 158 -24 30 -15 58 -38 75 -64 25 -37 27 -49 26 -131
0 -77 -18 -172 -112 -608 -62 -284 -112 -520 -112 -523 0 -3 -84 -5 -187 -5
-509 0 -777 -83 -1020 -314 -150 -143 -245 -300 -323 -535 -32 -95 -192 -813
-287 -1281 -25 -124 -25 -421 0 -510 34 -119 74 -189 156 -271 59 -59 95 -85
161 -117 200 -97 504 -125 800 -76 465 78 776 356 930 834 33 104 145 608 336
1523 l6 27 276 0 c307 0 437 13 586 56 373 107 641 380 775 792 55 166 235
988 272 1240 26 175 36 528 20 668 -92 778 -560 1202 -1461 1326 -112 15 -215
20 -450 23 -168 1 -323 1 -345 -1z m-465 -4110 c0 -21 -294 -1386 -307 -1423
-32 -96 -97 -177 -174 -216 -59 -31 -166 -49 -235 -41 -147 17 -214 91 -214
234 0 87 233 1162 269 1237 49 106 117 166 226 201 41 13 435 20 435 8z"/>
</g>
</svg>
